<?xml version="1.0" encoding="utf-8"?>
<!-- Generator: Adobe Illustrator 21.1.0, SVG Export Plug-In . SVG Version: 6.00 Build 0)  -->
<svg version="1.1" id="Layer_1" xmlns="http://www.w3.org/2000/svg" xmlns:xlink="http://www.w3.org/1999/xlink" x="0px" y="0px"
	 viewBox="0 0 215.5 215.4" style="enable-background:new 0 0 215.5 215.4;" xml:space="preserve">
<style type="text/css">
	.st0{fill:#76881E;}
</style>
<g>
	<path class="st0" d="M215.5,105.5c1.1,59.8-46.4,109.1-106.5,109.9C49.7,216.2,1,168.7,0,108.9C-1,50.1,46.8,1.1,106.5,0
		C165.3-1,214.3,46.4,215.5,105.5z M205.7,105.3c-1.3-54-46.1-96.7-100.1-95.5C51.8,11,8.6,55.9,9.8,109.4
		c1.2,54.2,46,97.5,99.5,96.3C164,204.4,207,159.6,205.7,105.3z"/>
	<path class="st0" d="M107.9,102.9c16.3,0,32.7,0,49,0c0.8,0,1.6-0.1,2.4,0.1c2.4,0.3,4.2,2.5,4.2,4.9c0,2.3-1.7,4.3-4.1,4.7
		c-0.9,0.1-1.8,0.1-2.7,0.1c-32.7,0-65.4,0-98,0c-0.8,0-1.6,0.1-2.4,0c-2.5-0.3-4.3-2.3-4.3-4.8c0-2.5,1.9-4.6,4.5-4.9
		c1-0.1,2,0,3,0C75.6,102.9,91.7,102.9,107.9,102.9z"/>
</g>
</svg>
