<?xml version="1.0" encoding="utf-8"?>
<!-- Generator: Adobe Illustrator 21.1.0, SVG Export Plug-In . SVG Version: 6.00 Build 0)  -->
<svg version="1.1" id="Layer_1" xmlns="http://www.w3.org/2000/svg" xmlns:xlink="http://www.w3.org/1999/xlink" x="0px" y="0px"
	 viewBox="0 0 179.4 179.4" style="enable-background:new 0 0 179.4 179.4;" xml:space="preserve">
<style type="text/css">
	.st0{fill:#76881E;}
</style>
<g>
	<path class="st0" d="M0,89.6C0,40.2,40.3,0,89.8,0c49.5,0,89.7,40.4,89.6,89.8c-0.1,49.5-40.4,89.7-89.9,89.6
		C40.1,179.3,0,139,0,89.6z M170,89.7c0-44.3-36-80.4-80.3-80.4C45.5,9.3,9.4,45.3,9.3,89.6c-0.1,44.4,36,80.5,80.3,80.5
		C133.9,170,170,134,170,89.7z"/>
	<path class="st0" d="M85,85c0-0.8,0-1.4,0-2c0-13.2,0-26.5,0-39.7c0-3.4,2.7-5.7,5.8-4.9c2.2,0.6,3.5,2.4,3.5,5
		c0,10.8,0,21.7,0,32.5c0,2.9,0,5.9,0,9c0.7,0,1.3,0,1.9,0c13.2,0,26.5,0,39.7,0c2.8,0,4.8,1.6,5.1,4c0.4,3-1.8,5.3-4.9,5.3
		c-6.7,0-13.4,0-20.1,0c-7.2,0-14.3,0-21.7,0c0,0.6,0,1.2,0,1.8c0,13.3,0,26.6,0,39.9c0,2.1-0.8,3.7-2.6,4.6c-1.7,0.9-3.4,0.6-5-0.6
		c-1.3-1-1.8-2.5-1.8-4.1c0-13.2,0-26.4,0-39.5c0-0.6,0-1.2,0-2c-0.7,0-1.3,0-1.9,0c-13.2,0-26.5,0-39.7,0c-2.9,0-4.9-1.7-5.1-4.2
		C38,87.2,40.1,85,43.2,85c8.1,0,16.2,0,24.3,0C73.3,85,79,85,85,85z"/>
</g>
</svg>
