<svg id="Layer_1" xmlns="http://www.w3.org/2000/svg" viewBox="0 0 215.5 215.4"><style>.st0{fill:#76881e}</style><path class="st0" d="M215.5 105.5c1.1 59.8-46.4 109.1-106.5 109.9-59.3.8-108-46.7-109-106.5C-1 50.1 46.8 1.1 106.5 0c58.8-1 107.8 46.4 109 105.5zm-9.8-.2c-1.3-54-46.1-96.7-100.1-95.5-53.8 1.2-97 46.1-95.8 99.6 1.2 54.2 46 97.5 99.5 96.3 54.7-1.3 97.7-46.1 96.4-100.4z"/><path class="st0" d="M107.9 102.9h49c.8 0 1.6-.1 2.4.1 2.4.3 4.2 2.5 4.2 4.9 0 2.3-1.7 4.3-4.1 4.7-.9.1-1.8.1-2.7.1h-98c-.8 0-1.6.1-2.4 0-2.5-.3-4.3-2.3-4.3-4.8s1.9-4.6 4.5-4.9c1-.1 2 0 3 0 16.1-.1 32.2-.1 48.4-.1z"/></svg>