<?xml version="1.0" encoding="utf-8"?><svg xmlns="http://www.w3.org/2000/svg" xmlns:xlink="http://www.w3.org/1999/xlink"><symbol viewBox="0 0 215.5 215.4" id="a--minus" xmlns="http://www.w3.org/2000/svg"><path d="M215.5 105.5c1.1 59.8-46.4 109.1-106.5 109.9-59.3.8-108-46.7-109-106.5C-1 50.1 46.8 1.1 106.5 0c58.8-1 107.8 46.4 109 105.5zm-9.8-.2c-1.3-54-46.1-96.7-100.1-95.5-53.8 1.2-97 46.1-95.8 99.6 1.2 54.2 46 97.5 99.5 96.3 54.7-1.3 97.7-46.1 96.4-100.4z" fill="#76881e"/><path d="M107.9 102.9h49c.8 0 1.6-.1 2.4.1 2.4.3 4.2 2.5 4.2 4.9 0 2.3-1.7 4.3-4.1 4.7-.9.1-1.8.1-2.7.1h-98c-.8 0-1.6.1-2.4 0-2.5-.3-4.3-2.3-4.3-4.8s1.9-4.6 4.5-4.9c1-.1 2 0 3 0 16.1-.1 32.2-.1 48.4-.1z" fill="#76881e"/></symbol><symbol viewBox="0 0 179.4 179.4" id="plus" xmlns="http://www.w3.org/2000/svg"><path d="M0 89.6C0 40.2 40.3 0 89.8 0s89.7 40.4 89.6 89.8c-.1 49.5-40.4 89.7-89.9 89.6C40.1 179.3 0 139 0 89.6zm170 .1c0-44.3-36-80.4-80.3-80.4-44.2 0-80.3 36-80.4 80.3-.1 44.4 36 80.5 80.3 80.5C133.9 170 170 134 170 89.7z" fill="#76881e"/><path d="M85 85V43.3c0-3.4 2.7-5.7 5.8-4.9 2.2.6 3.5 2.4 3.5 5v41.5h41.6c2.8 0 4.8 1.6 5.1 4 .4 3-1.8 5.3-4.9 5.3H94.3v41.7c0 2.1-.8 3.7-2.6 4.6-1.7.9-3.4.6-5-.6-1.3-1-1.8-2.5-1.8-4.1V94.3H43.3c-2.9 0-4.9-1.7-5.1-4.2-.2-2.9 1.9-5.1 5-5.1H85z" fill="#76881e"/></symbol></svg>